<svg width="61" height="32" viewBox="0 0 61 32" fill="none" xmlns="http://www.w3.org/2000/svg">
<path d="M30.2802 32H23.1086C22.6418 32 22.2599 31.8861 21.9629 31.6587C21.68 31.4312 21.4536 31.1608 21.2839 30.848L15.0884 19.968C14.9753 20.2809 14.848 20.5511 14.7065 20.7787L8.93537 30.848C8.73736 31.1325 8.50397 31.3955 8.23519 31.6373C7.96645 31.8792 7.61989 32 7.19554 32H0.490845L10.4418 16L0.872761 0.917336H8.04424C8.51102 0.917336 8.8505 0.981335 9.06267 1.10933C9.28901 1.22311 9.48702 1.42222 9.65676 1.70667L15.8098 12.1813C15.8805 11.9965 15.9583 11.8187 16.0432 11.648C16.1422 11.4773 16.2483 11.2995 16.3615 11.1147L21.7507 1.81333C21.9487 1.50044 22.1538 1.27289 22.366 1.13067C22.5923 0.988447 22.8681 0.917336 23.1935 0.917336H30.068L20.3715 15.7013L30.2802 32ZM60.7876 0.917336L48.3967 32H41.9041L29.5132 0.917336H35.2843C35.9068 0.917336 36.4088 1.06667 36.7907 1.36533C37.1727 1.64978 37.4628 2.01956 37.6607 2.47467L43.644 19.1147C43.927 19.84 44.2028 20.6364 44.4714 21.504C44.7404 22.3573 44.995 23.2533 45.2353 24.192C45.4334 23.2533 45.6527 22.3573 45.893 21.504C46.1476 20.6364 46.4166 19.84 46.6993 19.1147L52.6401 2.47467C52.7958 2.07644 53.0717 1.72089 53.4676 1.408C53.8779 1.08089 54.38 0.917336 54.9741 0.917336H60.7876Z" fill="black"/>
</svg>
