<svg width="90" height="45" viewBox="0 0 90 45" fill="none" xmlns="http://www.w3.org/2000/svg">
<path d="M29.0625 45L23.5 32.7188C23.1458 31.9479 22.9062 31.1979 22.7812 30.4688C22.6771 29.7188 22.5938 29.1042 22.5312 28.625H22.4062C22.2812 29.125 22.1354 29.7812 21.9688 30.5938C21.8021 31.4062 21.5625 32.1979 21.25 32.9688L16.0625 45H0L13.4375 22.6562L1.21875 0.1875H17.5312L21.875 12.0312C22.2708 13.1354 22.6354 14.5938 22.9688 16.4062H23.0938C23.4271 14.3646 23.8125 12.8854 24.25 11.9688L29.3125 0.1875H44.3438L31.75 22.4062L44.9375 45H29.0625ZM74.875 45H59.7188L45.25 0.1875H59.7812L66.625 27.7812C67.1667 30.0104 67.4688 31.6771 67.5312 32.7812H67.8438C67.9688 31.3854 68.2917 29.6562 68.8125 27.5938L75.4688 0.1875H89.5312L74.875 45Z" fill="#00afaf"/>
</svg>
